<svg xmlns="http://www.w3.org/2000/svg" width="80" height="80" viewBox="0 0 80 80">

  <defs>
    <linearGradient id="svg-defs-gradient-icon-deployment" x1="15" y1="65" x2="65" y2="15" gradientUnits="userSpaceOnUse">
      <stop offset="0" stop-color="#7141F1"/>
      <stop offset="0.7" stop-color="#4D6BD8"/>
      <stop offset="1" stop-color="#3183E2"/>
    </linearGradient>
    <mask id="svg-defs-mask-icon-deployment">
      <rect class="uk-preserve" x="15.777" y="12.474" width="48.446" height="9.909" fill="none" stroke="#fff" stroke-linejoin="round" stroke-width="2"/>
      <path class="uk-preserve" d="M60.92,22.383V48.192A1.718,1.718,0,0,1,59.2,49.909H20.8a1.718,1.718,0,0,1-1.718-1.717h0V22.383" fill="none" stroke="#fff" stroke-linejoin="round" stroke-width="2"/>
      <line class="uk-preserve" x1="35.596" y1="28.989" x2="44.404" y2="28.989" fill="none" stroke="#fff" stroke-linecap="round" stroke-linejoin="round" stroke-width="3"/>
      <path class="uk-preserve" d="M9.721,55.415H70.279a6.056,6.056,0,0,1,6.056,6.055h0a6.056,6.056,0,0,1-6.056,6.056H9.721A6.055,6.055,0,0,1,3.666,61.47h0A6.055,6.055,0,0,1,9.721,55.415Z" fill="none" stroke="#fff" stroke-linecap="round" stroke-linejoin="round" stroke-width="2"/>
      <circle class="uk-preserve" cx="15.227" cy="61.47" r="2.753" fill="#fff"/>
      <circle class="uk-preserve" cx="31.742" cy="61.47" r="2.753" fill="#fff"/>
      <circle class="uk-preserve" cx="48.258" cy="61.47" r="2.753" fill="#fff"/>
      <circle class="uk-preserve" cx="64.774" cy="61.47" r="2.753" fill="#fff"/>
    </mask>
  </defs>

  <rect class="uk-preserve" x="2" y="3" width="76" height="74" fill="url(#svg-defs-gradient-icon-deployment)" mask="url(#svg-defs-mask-icon-deployment)"/>

</svg>
